<?xml version="1.0" encoding="UTF-8"?><svg id="LOGO" xmlns="http://www.w3.org/2000/svg" viewBox="0 0 1250 703"><path d="m850.866,270.231c0-53.476-45.024-93.438-96.342-93.438h-98.278l-.106,41.654h96.438c29.252,0,54.34,22.047,54.34,51.816,0,30.241-20.319,55.124-54.34,55.124h-96.712l-.106,41.67h68.466l91.986,148.629h45.789l-92.954-149.597c45.026-7.746,81.82-43.323,81.82-95.858Z" fill="#96a8b3"/><polygon points="538.6 176.792 538.6 515.685 742.138 515.685 716.333 474.071 582.172 474.071 582.172 176.792 538.6 176.792" fill="#96a8b3"/><path d="m416.192,577.515c29.097-19.413,48.336-53.26,48.336-90.032V176.793h-43.572l-.016,311.228c0,24.415-9.704,43.61-26.041,55.226l21.293,34.268Z" fill="#96a8b3"/></svg>